<svg height="510" width="720" xmlns="http://www.w3.org/2000/svg">
<rect height="510" fill="#555" width="720"></rect>
<text fill="#7f7" font-family="Courier New" font-size="12" xml:space="preserve">
<tspan x="10" y="26">2 megabytes installed</tspan>
<tspan x="10" y="42"></tspan>
<tspan x="10" y="58">node_modules</tspan>
<tspan x="10" y="74">└─┬ homebridge-ssh@0.0.6 </tspan>
<tspan x="10" y="90">  ├── object-assign@4.1.1 </tspan>
<tspan x="10" y="106">  └─┬ ssh-exec@1.4.0 </tspan>
<tspan x="10" y="122">    ├─┬ duplexify@3.5.0 </tspan>
<tspan x="10" y="138">    │ ├─┬ end-of-stream@1.0.0 </tspan>
<tspan x="10" y="154">    │ │ └── once@1.3.3 </tspan>
<tspan x="10" y="170">    │ ├── inherits@2.0.3 </tspan>
<tspan x="10" y="186">    │ ├─┬ readable-stream@2.2.9 </tspan>
<tspan x="10" y="202">    │ │ ├── buffer-shims@1.0.0 </tspan>
<tspan x="10" y="218">    │ │ ├── core-util-is@1.0.2 </tspan>
<tspan x="10" y="234">    │ │ ├── isarray@1.0.0 </tspan>
<tspan x="10" y="250">    │ │ ├── process-nextick-args@1.0.7 </tspan>
<tspan x="10" y="266">    │ │ ├── string_decoder@1.0.0 </tspan>
<tspan x="10" y="282">    │ │ └── util-deprecate@1.0.2 </tspan>
<tspan x="10" y="298">    │ └── stream-shift@1.0.0 </tspan>
<tspan x="10" y="314">    ├─┬ once@1.4.0 </tspan>
<tspan x="10" y="330">    │ └── wrappy@1.0.2 </tspan>
<tspan x="10" y="346">    └─┬ ssh2@0.4.15 </tspan>
<tspan x="10" y="362">      ├─┬ readable-stream@1.0.34 </tspan>
<tspan x="10" y="378">      │ ├── isarray@0.0.1 </tspan>
<tspan x="10" y="394">      │ └── string_decoder@0.10.31 </tspan>
<tspan x="10" y="410">      └─┬ ssh2-streams@0.0.23 </tspan>
<tspan x="10" y="426">        ├── asn1@0.2.3 </tspan>
<tspan x="10" y="442">        ├─┬ readable-stream@1.0.34 </tspan>
<tspan x="10" y="458">        │ ├── isarray@0.0.1 </tspan>
<tspan x="10" y="474">        │ └── string_decoder@0.10.31 </tspan>
<tspan x="10" y="490">        └── streamsearch@0.1.2</tspan>
</text>
</svg>
